<svg width="65" height="46" viewBox="0 0 65 46" fill="none" xmlns="http://www.w3.org/2000/svg">
<path d="M59.9414 24.3705C62.6385 21.6891 64.0544 18.2927 64.0544 14.7176C64.0544 6.5544 56.5702 0 47.4003 0C43.2873 0 39.5789 1.37047 36.6796 3.57513C32.9037 1.31088 28.3862 0 23.5316 0C10.5184 0 0 9.29534 0 20.7953C0 25.9793 2.15762 30.8653 6.06831 34.7383C5.32663 36.7642 4.31524 38.671 3.10158 40.3394C2.0902 41.7098 2.22505 43.3782 3.37128 44.6295C4.18039 45.5233 5.39406 46 6.60772 46C7.14712 46 7.68653 45.9404 8.15851 45.7021C11.1927 44.6295 14.564 43.0207 18.0701 40.9352C19.8906 41.2927 21.7111 41.5311 23.5316 41.5311C33.106 41.5311 41.2645 36.4663 44.9729 29.2565C46.9283 29.4948 48.9511 29.4948 51.0413 29.0777C53.4686 30.5078 55.6936 31.5803 57.7838 32.2953C58.1884 32.4741 58.5929 32.5337 59.0649 32.5337C60.0763 32.5337 61.0203 32.1166 61.6945 31.4611C62.6385 30.4482 62.7059 29.0181 61.9642 27.9456C61.0877 26.8135 60.4809 25.6218 59.9414 24.3705ZM18.2049 37.8964C17.733 37.7772 17.1936 37.8368 16.789 38.1347C13.2154 40.2798 9.91158 41.9482 6.94485 42.9611C6.47287 43.1399 6.13574 42.9016 6.06831 42.7824C5.93346 42.6036 5.79861 42.3653 6.00089 42.0078C7.6191 39.8031 8.83277 37.4197 9.64187 34.7383C9.84415 34.2021 9.64188 33.6658 9.23732 33.2487C5.52891 29.9119 3.43871 25.5026 3.43871 20.7953C3.43871 11.0233 12.4738 3.03886 23.5316 3.03886C34.5894 3.03886 43.6244 11.0233 43.6244 20.7953C43.6244 32.1166 31.353 41.0544 18.2049 37.8964ZM52.3223 26.2176C52.0526 26.0389 51.7155 25.9197 51.3784 25.9197C51.2435 25.9197 51.0413 25.9197 50.9064 25.9793C49.2882 26.3964 47.67 26.456 46.1192 26.3368C46.6586 24.5492 46.9957 22.7021 46.9957 20.7358C46.9957 14.658 44.029 9.23575 39.3766 5.42228C41.6017 3.87306 44.3661 2.97927 47.4003 2.97927C54.6822 2.97927 60.6157 8.2228 60.6157 14.658C60.6157 17.7565 59.2672 20.6762 56.8399 22.8808C56.3679 23.2979 56.233 23.8342 56.3679 24.3705C56.9747 26.2176 57.8512 27.9456 58.9975 29.4352C56.9747 28.7798 54.6822 27.6477 52.3223 26.2176Z" fill="url(#paint0_linear)"/>
<path d="M13.9572 23.2979C15.5212 23.2979 16.7891 22.1775 16.7891 20.7953C16.7891 19.4132 15.5212 18.2927 13.9572 18.2927C12.3932 18.2927 11.1254 19.4132 11.1254 20.7953C11.1254 22.1775 12.3932 23.2979 13.9572 23.2979Z" fill="url(#paint1_linear)"/>
<path d="M23.5316 23.2979C25.0956 23.2979 26.3635 22.1775 26.3635 20.7953C26.3635 19.4132 25.0956 18.2927 23.5316 18.2927C21.9676 18.2927 20.6998 19.4132 20.6998 20.7953C20.6998 22.1775 21.9676 23.2979 23.5316 23.2979Z" fill="url(#paint2_linear)"/>
<path d="M33.0388 23.2979C34.6028 23.2979 35.8707 22.1775 35.8707 20.7953C35.8707 19.4132 34.6028 18.2927 33.0388 18.2927C31.4748 18.2927 30.2069 19.4132 30.2069 20.7953C30.2069 22.1775 31.4748 23.2979 33.0388 23.2979Z" fill="url(#paint3_linear)"/>
<defs>
<linearGradient id="paint0_linear" x1="-2.42514" y1="77.5621" x2="64.4805" y2="74.9886" gradientUnits="userSpaceOnUse">
<stop stop-color="#6429DF"/>
<stop offset="0.401042" stop-color="#17E1FD"/>
<stop offset="0.729167" stop-color="#FF77E1"/>
<stop offset="1" stop-color="#FFF177"/>
</linearGradient>
<linearGradient id="paint1_linear" x1="-2.42514" y1="77.5621" x2="64.4805" y2="74.9886" gradientUnits="userSpaceOnUse">
<stop stop-color="#6429DF"/>
<stop offset="0.401042" stop-color="#17E1FD"/>
<stop offset="0.729167" stop-color="#FF77E1"/>
<stop offset="1" stop-color="#FFF177"/>
</linearGradient>
<linearGradient id="paint2_linear" x1="-2.42514" y1="77.5621" x2="64.4805" y2="74.9886" gradientUnits="userSpaceOnUse">
<stop stop-color="#6429DF"/>
<stop offset="0.401042" stop-color="#17E1FD"/>
<stop offset="0.729167" stop-color="#FF77E1"/>
<stop offset="1" stop-color="#FFF177"/>
</linearGradient>
<linearGradient id="paint3_linear" x1="-2.42514" y1="77.5621" x2="64.4805" y2="74.9886" gradientUnits="userSpaceOnUse">
<stop stop-color="#6429DF"/>
<stop offset="0.401042" stop-color="#17E1FD"/>
<stop offset="0.729167" stop-color="#FF77E1"/>
<stop offset="1" stop-color="#FFF177"/>
</linearGradient>
</defs>
</svg>
