<svg width="48" height="50" viewBox="0 0 48 50" fill="none" xmlns="http://www.w3.org/2000/svg">
<path d="M47.5085 24.7276C47.5038 24.7023 47.4974 24.6778 47.4906 24.6532C47.4829 24.6251 47.4808 24.5963 47.4703 24.5686L41.8855 9.95712C41.7382 9.5715 41.3408 9.31328 40.8948 9.31328H30.7968L20.9282 0.28131C20.5182 -0.0936656 19.8542 -0.0939786 19.4441 0.281623L11.5816 7.48284C11.3848 7.66313 11.274 7.90759 11.274 8.16268C11.274 8.41778 11.3848 8.66223 11.5816 8.84252L12.0961 9.31328H6.625C6.17868 9.31328 5.78124 9.57181 5.63395 9.95775L0.0587795 24.5693C0.0520301 24.587 0.0513894 24.6055 0.0458361 24.6233C0.032679 24.665 0.0221705 24.7072 0.0152075 24.751C0.0108076 24.7793 0.0076037 24.8072 0.00593776 24.8356C0.00482711 24.8538 0 24.871 0 24.8895V49.0385C0 49.5696 0.469895 50 1.04983 50H46.4765C47.0564 50 47.5263 49.5696 47.5263 49.0385V24.8895C47.5263 24.8788 47.5233 24.8689 47.5229 24.8583C47.5215 24.8144 47.5165 24.7712 47.5085 24.7276ZM20.1867 2.32083L31.1764 12.3785L26.5465 16.619H23.0508L13.8087 8.16268L20.1867 2.32083ZM7.37034 11.2364H14.1959L20.0797 16.619H16.9746C16.3947 16.619 15.9248 17.0494 15.9248 17.5806C15.9248 18.1117 16.3947 18.5421 16.9746 18.5421H22.6164H26.9812H30.5548C31.1347 18.5421 31.6046 18.1117 31.6046 17.5806C31.6046 17.0494 31.1347 16.619 30.5548 16.619H29.5155L33.4032 13.0583C33.8133 12.683 33.8133 12.0743 33.4032 11.6987L32.8988 11.2364H40.1502L44.9998 23.9248H2.52889L7.37034 11.2364ZM45.4267 48.0769H2.09966V25.851H45.4267V48.0769Z" fill="url(#paint0_linear)"/>
<defs>
<linearGradient id="paint0_linear" x1="-1.79937" y1="84.3066" x2="47.8817" y2="83.0022" gradientUnits="userSpaceOnUse">
<stop stop-color="#6429DF"/>
<stop offset="0.401042" stop-color="#17E1FD"/>
<stop offset="0.729167" stop-color="#FF77E1"/>
<stop offset="1" stop-color="#FFF177"/>
</linearGradient>
</defs>
</svg>
