<svg width="57" height="32" viewBox="0 0 57 32" fill="none" xmlns="http://www.w3.org/2000/svg">
<path d="M10.5 9.5L10.5 23.5M46.5 9.5V23.5M3 31H54C55.1046 31 56 30.1046 56 29V3C56 1.89543 55.1046 1 54 1H3C1.89543 1 1 1.89543 1 3V29C1 30.1046 1.89543 31 3 31ZM36 16.5C36 20.6421 32.6421 24 28.5 24C24.3579 24 21 20.6421 21 16.5C21 12.3579 24.3579 9 28.5 9C32.6421 9 36 12.3579 36 16.5Z" stroke="url(#paint0_linear)" stroke-width="2" stroke-linecap="round"/>
<defs>
<linearGradient id="paint0_linear" x1="-1.08233" y1="51.584" x2="56.3037" y2="48.6779" gradientUnits="userSpaceOnUse">
<stop stop-color="#6429DF"/>
<stop offset="0.401042" stop-color="#17E1FD"/>
<stop offset="0.729167" stop-color="#FF77E1"/>
<stop offset="1" stop-color="#FFF177"/>
</linearGradient>
</defs>
</svg>
