<svg width="50" height="59" viewBox="0 0 50 59" fill="none" xmlns="http://www.w3.org/2000/svg">
<path d="M49.9813 29.1785C49.9763 29.1487 49.9696 29.1198 49.9624 29.0908C49.9543 29.0576 49.9521 29.0236 49.941 28.991L44.0656 11.7494C43.9107 11.2944 43.4925 10.9897 43.0233 10.9897H32.3998L22.0175 0.331946C21.5861 -0.110525 20.8875 -0.110895 20.4561 0.332315L12.1844 8.82976C11.9773 9.0425 11.8608 9.33095 11.8608 9.63197C11.8608 9.93298 11.9773 10.2214 12.1844 10.4342L12.7256 10.9897H6.96982C6.50028 10.9897 6.08214 11.2947 5.92719 11.7501L0.0618389 28.9917C0.0547382 29.0126 0.0540641 29.0344 0.0482218 29.0555C0.0343799 29.1047 0.0233244 29.1545 0.015999 29.2062C0.0113701 29.2396 0.00799946 29.2725 0.00624681 29.3061C0.00507835 29.3275 0 29.3478 0 29.3696V57.8654C0 58.4922 0.494352 59 1.10447 59H48.8955C49.5056 59 50 58.4922 50 57.8654V29.3696C50 29.357 49.9968 29.3453 49.9964 29.3328C49.9949 29.2809 49.9897 29.2301 49.9813 29.1785ZM21.2374 2.73858L32.7991 14.6066L27.9282 19.6105H24.2506L14.5275 9.63197L21.2374 2.73858ZM7.75395 13.2589H14.9348L21.1248 19.6105H17.8581C17.248 19.6105 16.7537 20.1183 16.7537 20.7451C16.7537 21.3719 17.248 21.8797 17.8581 21.8797H23.7936H28.3855H32.1451C32.7552 21.8797 33.2496 21.3719 33.2496 20.7451C33.2496 20.1183 32.7552 19.6105 32.1451 19.6105H31.0518L35.1418 15.4088C35.5732 14.966 35.5732 14.2476 35.1418 13.8044L34.6111 13.2589H42.2399L47.342 28.2313H2.66051L7.75395 13.2589ZM47.7911 56.7308H2.20894V30.5042H47.7911V56.7308V56.7308Z" fill="url(#paint0_linear)"/>
<defs>
<linearGradient id="paint0_linear" x1="-1.89303" y1="99.4818" x2="50.3812" y2="98.2581" gradientUnits="userSpaceOnUse">
<stop stop-color="#6429DF"/>
<stop offset="0.401042" stop-color="#17E1FD"/>
<stop offset="0.729167" stop-color="#FF77E1"/>
<stop offset="1" stop-color="#FFF177"/>
</linearGradient>
</defs>
</svg>
